<?xml version="1.0" encoding="utf-8"?><!-- Uploaded to: SVG Repo, www.svgrepo.com, Generator: SVG Repo Mixer Tools -->
<svg fill="#000000" width="800px" height="800px" viewBox="0 0 24 24" id="sigma-circle-2" data-name="Flat Color" xmlns="http://www.w3.org/2000/svg" class="icon flat-color"><circle id="primary" cx="12" cy="12" r="10" style="fill: rgb(0, 0, 0);"></circle><path id="secondary" d="M15,16H9a1,1,0,0,1-.92-.62,1,1,0,0,1,.21-1.09L10.59,12,8.29,9.71a1,1,0,0,1-.21-1.09A1,1,0,0,1,9,8h6a1,1,0,0,1,1,1v1a1,1,0,0,1-2,0H11.41l1.3,1.29a1,1,0,0,1,0,1.42L11.41,14H14a1,1,0,0,1,2,0v1A1,1,0,0,1,15,16Z" style="fill: rgb(44, 169, 188);"></path></svg>