<svg id="e0TcpS7lPGb1" xmlns="http://www.w3.org/2000/svg" xmlns:xlink="http://www.w3.org/1999/xlink" viewBox="0 0 520 467.94" shape-rendering="geometricPrecision" text-rendering="geometricPrecision"><g transform="matrix(1.000001 0 0 1-.001305 0)"><g clip-path="url(#e0TcpS7lPGb4)"><clipPath id="e0TcpS7lPGb4"><path d="M2285,103h324.371094v266L2285,369v-266Zm0,0"/></clipPath></g><path d="M431.699219,215.824219L344.8125,265.953125l.152344.304688l87.800781,100.847656l86.730469-50.433594-87.640625-100.847656h-.15625" fill="#008fcd"/><path d="M432.765625,367.105469l-86.433594,50.273437-87.34375-101.929687L344.8125,265.953125l.152344.304688l87.800781,100.847656" fill="#d1dfe9"/><path d="M431.855469,215.824219h-.15625L344.8125,265.953125l-86.125-99.941406l85.523438-50.875h.148437l87.496094,100.6875" fill="#d1dfe9"/><g clip-path="url(#e0TcpS7lPGb12)"><g transform="translate(0 0.000001)"><path d="M259.296875,467.941406l87.035156-50.5625-87.34375-101.929687.308594,152.492187" transform="translate(0 0.000001)" fill="#008fcd"/></g><clipPath id="e0TcpS7lPGb12"><path d="M258,315h89v152.941406h-89L258,315Zm0,0"/></clipPath></g><path d="M258.6875,166.011719l86.125,99.941406-85.824219,49.496094-.453125-149.4375h.152344" fill="#006da5"/><path d="M258.535156,166.011719h.152344l85.523438-50.875h.148437l-86.125-99.023438.300781,149.898438" fill="#008fcd"/><g clip-path="url(#e0TcpS7lPGb19)"><g><path d="M84.769531,366.039063L259.296875,467.941406l-.308594-152.492187-87.183593-49.652344-85.976563-48.90625-1.058594,149.148438" fill="#0082be"/></g><clipPath id="e0TcpS7lPGb19"><path d="M84,216h176v251.941406h-176L84,216Zm0,0"/></clipPath></g><path d="M258.535156,166.011719l.453125,149.4375-87.183593-49.652344L171.5,117.265625l87.035156,48.746094" fill="#215a82"/><path d="M258.234375,16.113281L171.5,117.121094v.144531l87.035156,48.746094-.300781-149.898438" fill="#0082be"/><path d="M171.804688,265.796875l-85.976563-48.90625L171.5,117.121094v.144531l.304688,148.53125" fill="#aecadc"/><path d="M0,316.671875l84.769531,49.367188l1.058594-149.148438L0,316.671875" transform="translate(.000001 0)" fill="#215a82"/></g></svg>
