<?xml version="1.0" encoding="utf-8"?><!-- Uploaded to: SVG Repo, www.svgrepo.com, Generator: SVG Repo Mixer Tools -->
<svg fill="#000000" width="800px" height="800px" viewBox="0 0 24 24" id="microsoft" data-name="Flat Color" xmlns="http://www.w3.org/2000/svg" class="icon flat-color"><path id="secondary" d="M22,3v7a1,1,0,0,1-1,1H14a1,1,0,0,1-1-1V3a1,1,0,0,1,1-1h7A1,1,0,0,1,22,3ZM10,13H3a1,1,0,0,0-1,1v7a1,1,0,0,0,1,1h7a1,1,0,0,0,1-1V14A1,1,0,0,0,10,13Z" style="fill: rgb(44, 169, 188);"></path><path id="primary" d="M22,14v7a1,1,0,0,1-1,1H14a1,1,0,0,1-1-1V14a1,1,0,0,1,1-1h7A1,1,0,0,1,22,14ZM10,2H3A1,1,0,0,0,2,3v7a1,1,0,0,0,1,1h7a1,1,0,0,0,1-1V3A1,1,0,0,0,10,2Z" style="fill: rgb(0, 0, 0);"></path></svg>