<?xml version="1.0" encoding="UTF-8" standalone="no"?>
<!-- Created with Inkscape (http://www.inkscape.org/) -->

<svg
   xmlns:dc="http://purl.org/dc/elements/1.1/"
   xmlns:cc="http://creativecommons.org/ns#"
   xmlns:rdf="http://www.w3.org/1999/02/22-rdf-syntax-ns#"
   xmlns:svg="http://www.w3.org/2000/svg"
   xmlns="http://www.w3.org/2000/svg"
   xmlns:sodipodi="http://sodipodi.sourceforge.net/DTD/sodipodi-0.dtd"
   xmlns:inkscape="http://www.inkscape.org/namespaces/inkscape"
   width="187.76797"
   height="102.38401"
   viewBox="0 0 49.680274 27.089103"
   version="1.1"
   id="svg1049"
   inkscape:version="0.92.0 r15299"
   sodipodi:docname="ss n c.svg">
  <defs
     id="defs1043" />
  <sodipodi:namedview
     id="base"
     pagecolor="#ffffff"
     bordercolor="#666666"
     borderopacity="1.0"
     inkscape:pageopacity="0.0"
     inkscape:pageshadow="2"
     inkscape:zoom="4.8027509"
     inkscape:cx="93.883975"
     inkscape:cy="51.192003"
     inkscape:document-units="mm"
     inkscape:current-layer="layer1"
     showgrid="false"
     fit-margin-top="0"
     fit-margin-left="0"
     fit-margin-right="0"
     fit-margin-bottom="0"
     units="px"
     inkscape:window-width="1280"
     inkscape:window-height="744"
     inkscape:window-x="-4"
     inkscape:window-y="-4"
     inkscape:window-maximized="1" />
  <metadata
     id="metadata1046">
    <rdf:RDF>
      <cc:Work
         rdf:about="">
        <dc:format>image/svg+xml</dc:format>
        <dc:type
           rdf:resource="http://purl.org/dc/dcmitype/StillImage" />
        <dc:title></dc:title>
      </cc:Work>
    </rdf:RDF>
  </metadata>
  <g
     inkscape:label="Layer 1"
     inkscape:groupmode="layer"
     id="layer1"
     transform="translate(12.23463,-135.15649)">
    <g
       transform="translate(-342.43496,-88.092938)"
       id="g1028">
      <path
         inkscape:connector-curvature="0"
         id="path963"
         style="fill:#0a85c7;fill-opacity:1;fill-rule:nonzero;stroke:none;stroke-width:0.35277778"
         d="m 352.94003,250.20624 h 12.5864 v -26.82452 h -12.5864 z" />
      <path
         d="m 348.36556,238.32398 c -1.8602,-0.629 -3.49038,-1.06997 -3.49038,-2.16076 0,-1.00718 0.91969,-1.5741 2.25707,-1.5741 1.0033,0 1.93181,0.43956 2.46627,1.29717 h 3.13337 c -0.67874,-2.22956 -2.79612,-3.83576 -5.49487,-3.83576 -3.0935,0 -5.35093,1.95157 -5.35093,4.23828 0,2.55975 2.13219,3.44064 3.88761,4.07034 2.06904,0.7553 4.13879,1.21744 4.13879,2.62255 0,0.94474 -0.89888,1.70004 -2.36185,1.70004 -1.3335,0 -2.36678,-0.64735 -2.93123,-1.53811 h -3.18487 c 0.84419,2.53753 2.9217,4.18183 5.90691,4.18183 3.34433,0 5.60211,-1.86761 5.60211,-4.49051 0,-2.87443 -2.44581,-3.75567 -4.578,-4.51097"
         style="fill:#0a85c7;fill-opacity:1;fill-rule:nonzero;stroke:none;stroke-width:0.35277778"
         id="path967"
         inkscape:connector-curvature="0" />
      <path
         d="m 337.26364,238.32398 c -1.8602,-0.629 -3.49074,-1.06997 -3.49074,-2.16076 0,-1.00718 0.9197,-1.5741 2.25743,-1.5741 1.00295,0 1.93181,0.43956 2.46627,1.29717 h 3.13302 c -0.67839,-2.22956 -2.79612,-3.83576 -5.49452,-3.83576 -3.0935,0 -5.35128,1.95157 -5.35128,4.23828 0,2.55975 2.13219,3.44064 3.88796,4.07034 2.0694,0.7553 4.13844,1.21744 4.13844,2.62255 0,0.94474 -0.89853,1.70004 -2.36185,1.70004 -1.33315,0 -2.36643,-0.64735 -2.93123,-1.53811 h -3.18452 c 0.84419,2.53753 2.9217,4.18183 5.90691,4.18183 3.34433,0 5.60175,-1.86761 5.60175,-4.49051 0,-2.87443 -2.44545,-3.75567 -4.57764,-4.51097 m 38.90504,4.82 c -0.82092,0.77682 -1.99496,1.26471 -3.2385,1.26471 -2.61267,0 -4.55683,-1.84609 -4.55683,-4.72087 0,-2.79047 1.81821,-4.76285 4.55683,-4.76285 1.03011,0 2.06904,0.35454 2.86138,0.96132 h 3.75814 c -1.30246,-2.32375 -3.75426,-3.83576 -6.61952,-3.83576 -4.20159,0 -7.58755,3.21063 -7.58755,7.63729 0,4.42701 3.38596,7.63764 7.58755,7.63764 3.02471,0 5.58271,-1.64818 6.81813,-4.18148"
         style="fill:#0a85c7;fill-opacity:1;fill-rule:nonzero;stroke:none;stroke-width:0.35277778"
         id="path971"
         inkscape:connector-curvature="0" />
      <path
         d="m 360.16809,242.82542 c -0.55668,0.53058 -1.16946,0.85231 -1.83762,0.85231 -0.94685,0 -1.62913,-0.60078 -1.62913,-1.43863 0,-0.63641 0.38312,-1.23013 1.26683,-1.62207 l 2.18757,2.19569 z m -2.17064,-2.22109 h -0.003 l 0.002,-0.001 z m 1.00118,-4.2351 c 0.65476,0 1.11337,0.43322 1.11337,1.1176 0,0.72673 -0.52846,1.17405 -1.53106,1.53741 -0.54292,-0.60078 -0.73766,-0.96414 -0.73766,-1.46685 0,-0.69885 0.45932,-1.18816 1.15535,-1.18816 m 3.79801,4.2351 h -2.6663 l -0.64452,-0.65793 c 1.29469,-0.4886 2.14383,-1.25695 2.14383,-2.55693 0,-1.34162 -1.04387,-2.37561 -2.58939,-2.37561 -1.74025,0 -2.79823,1.14582 -2.79823,2.47297 0,0.72673 0.25082,1.32751 0.8075,2.05493 -1.33667,0.57327 -2.07433,1.48097 -2.07433,2.75308 0,1.71838 1.36419,2.80882 3.17394,2.80882 1.18357,0 2.15794,-0.4893 2.99332,-1.27212 l 0.0134,-0.0148 1.64077,1.64711"
         style="fill:#ffffff;fill-opacity:1;fill-rule:nonzero;stroke:none;stroke-width:0.35277778"
         id="path975"
         inkscape:connector-curvature="0" />
    </g>
  </g>
</svg>
